# AST/ASF file generated using VICON BodyLanguage
# -----------------------------------------------
:version 1.10
:name VICON
:units
  mass 1.0
  length 0.45
  angle deg
:documentation
   .ast/.asf automatically generated from VICON data using
   VICON BodyBuilder and BodyLanguage model FoxedUp or BRILLIANT.MOD
:root
   order TX TY TZ RX RY RZ
   axis XYZ
   position 0 0 0  
   orientation 0 0 0 
:bonedata
  begin
     id 1 
     name lhipjoint
     direction 0.561001 -0.76473 0.316963 
     length 2.4722 
     axis 0 0 0  XYZ
  end
  begin
     id 2 
     name lfemur
     direction 0.34202 -0.939693 0  
     length 7.59403  
     axis 0 0 20  XYZ
    dof rx ry rz
    limits (-160.0 20.0)
           (-70.0 70.0)
           (-60.0 70.0)
  end
  begin
     id 3 
     name ltibia
     direction 0.34202 -0.939693 0   
     length 7.89655   
     axis 0 0 20   XYZ
    dof rx
    limits (-10.0 170.0)
  end
  begin
     id 4 
     name lfoot
     direction 0.061296 -0.168409 0.98381   
     length 2.73287   
     axis -90 7.62852e-016 20   XYZ
    dof rx rz
    limits (-45.0 90.0)
           (-70.0 20.0)
  end
  begin
     id 5 
     name ltoes
     direction 1.53547e-011 -4.21984e-011 1   
     length 1.37057   
     axis -90 7.62852e-016 20   XYZ
    dof rx
    limits (-90.0 20.0)
  end
  begin
     id 6 
     name rhipjoint
     direction -0.559611 -0.765599 0.317323   
     length 2.46939  
     axis 0 0 0  XYZ 
  end
  begin
     id 7 
     name rfemur
     direction -0.34202 -0.939693 0   
     length 7.53712   
     axis 0 0 -20   XYZ
    dof rx ry rz
    limits (-160.0 20.0)
           (-70.0 70.0)
           (-70.0 60.0)
  end
  begin
     id 8 
     name rtibia
     direction -0.34202 -0.939693 0   
     length 8.12549   
     axis 0 0 -20   XYZ
    dof rx
    limits (-10.0 170.0)
 end
 begin
     id 9 
     name rfoot
     direction -0.066984 -0.184037 0.980634   
     length 2.67541  
     axis -90 -7.62852e-016 -20   XYZ
    dof rx rz
    limits (-45.0 90.0)
           (-20.0 70.0)
  end
  begin
     id 10 
     name rtoes
     direction -1.53549e-011 -4.21786e-011 1   
     length 1.34085   
     axis -90 -7.62852e-016 -20   XYZ
    dof rx
    limits (-90.0 20.0)
  end
  begin
     id 11 
     name lowerback
     direction -0.0522728 0.992594 -0.109658   
     length 2.05633   
     axis 0 0 0   XYZ
    dof rx ry rz
    limits (-20.0 45.0)
           (-30.0 30.0)
           (-30.0 30.0)
  end
  begin
     id 12 
     name upperback
     direction 0.00589338 0.999977 0.00335704   
     length 2.05845   
     axis 0 0 0   XYZ
    dof rx ry rz
    limits (-20.0 45.0)
           (-30.0 30.0)
           (-30.0 30.0)
  end
  begin
     id 13 
     name thorax
     direction 0.0292928 0.998059 0.0549487   
     length 2.09281   
     axis 0 0 0   XYZ
    dof rx ry rz
    limits (-20.0 45.0)
           (-30.0 30.0)
           (-30.0 30.0)
  end
  begin
     id 14 
     name lowerneck
     direction 0.0356368 0.980775 0.191858   
     length 1.84767   
     axis 0 0 0   XYZ
    dof rx ry rz
    limits (-20.0 45.0)
           (-30.0 30.0)
           (-30.0 30.0)
  end
  begin
     id 15 
     name upperneck
     direction -0.0227605 0.98931 -0.14404   
     length 1.89582   
     axis 0 0 0   XYZ
    dof rx ry rz
    limits (-20.0 45.0)
           (-30.0 30.0)
           (-30.0 30.0)
  end
  begin
     id 16
     name head
     direction -0.00932985 0.997511 -0.0698904  
     length 1.90213  
     axis 0 0 0   XYZ
    dof rx ry rz
    limits (-20.0 45.0)
           (-30.0 30.0)
           (-30.0 30.0)
  end
  begin
     id 17 
     name lclavicle
     direction 0.873442 0.479511 0.0846686  
     length 3.41193  
     axis 0 0 0   XYZ
    dof ry rz
    limits (-20.0 10.0)
           (0.0 20.0)
  end
  begin
     id 18 
     name lhumerus
     direction 1 -4.4897e-011 -5.62117e-018   
     length 5.59864   
     axis 180 -30 -90   XYZ
    dof rx ry rz
    limits (-60.0 90.0)
           (-90.0 90.0)
           (-90.0 90.0)
  end
  begin
     id 19
     name lradius
     direction 1 -4.48966e-011 -6.26295e-027   
     length 3.59542   
     axis 180 -30 -90   XYZ
    dof rx
    limits (-10.0 170.0)
  end
  begin
     id 20
     name lwrist
     direction 1 -4.48947e-011 -1.74096e-026   
     length 1.79771   
     axis 1.04567e-014 90 90   XYZ
    dof ry
    limits (-180.0 0.0)
 end
  begin
     id 21 
     name lhand
     direction 1 -4.49085e-011 -3.48469e-026   
     length 0.572014   
     axis 2.22196e-014 90 90   XYZ
    dof rx rz
    limits (-90.0 90.0)
           (-45.0 45.0)
  end
  begin
     id 22 
     name lfingers
     direction 1 -4.48884e-011 -6.96135e-026   
     length 0.461173   
     axis 4.44383e-014 90 90   XYZ
    dof rx
    limits (0.0 90.0)
  end
  begin
     id 23
     name lthumb
     direction 0.707107 -6.34976e-011 0.707107   
     length 0.662154   
     axis -90 45 -5.4397e-014   XYZ
    dof rx rz
    limits (-45.0 45.0)
           (-45.0 45.0)
  end
  begin
     id 24 
     name rclavicle
     direction -0.890242 0.443271 0.104786   
     length 3.46753  
     axis 0 0 0   XYZ 
    dof ry rz
    limits (-10.0 20.0)
           (-20.0 0.0)
  end
  begin
     id 25 
     name rhumerus
     direction -1 -4.48963e-011 -5.41723e-018  
     length 5.8094   
     axis 180 30 90   XYZ
    dof rx ry rz
    limits (-90.0 60.0)
           (-90.0 90.0)
           (-90.0 90.0)
  end
  begin
     id 26 
     name rradius
     direction -1 -4.48958e-011 -6.51059e-027   
     length 3.66953   
     axis 180 30 90   XYZ
    dof rx
    limits (-10.0 170.0)
  end
  begin
     id 27 
     name rwrist
     direction -1 -4.48975e-011 -1.74124e-026   
     length 1.83476   
     axis 1.04567e-014 -90 -90   XYZ
    dof ry
    limits (-180.0 0.0)
  end
  begin
     id 28
     name rhand
     direction -1 -4.49013e-011 -3.48326e-026   
     length 0.57843   
     axis 2.22196e-014 -90 -90   XYZ
    dof rx rz
    limits (-90.0 90.0)
           (-45.0 45.0)
  end
  begin
     id 29
     name rfingers
     direction -1 -4.49023e-011 -6.9669e-026   
     length 0.466345   
     axis 4.44383e-014 -90 -90   XYZ
    dof rx
    limits (0.0 90.0)
  end
  begin
     id 30
     name rthumb
     direction -0.707107 -6.34926e-011 0.707107   
     length 0.669581   
     axis -90 -45 5.4397e-014   XYZ
    dof rx rz
    limits (-45.0 45.0)
           (-45.0 45.0)
  end
:hierarchy
  begin
    root lhipjoint rhipjoint lowerback
    lhipjoint lfemur
    lfemur ltibia
    ltibia lfoot
    lfoot ltoes
    rhipjoint rfemur
    rfemur rtibia
    rtibia rfoot
    rfoot rtoes
    lowerback upperback
    upperback thorax
    thorax lowerneck lclavicle rclavicle
    lowerneck upperneck
    upperneck head
    lclavicle lhumerus
    lhumerus lradius
    lradius lwrist
    lwrist lhand lthumb
    lhand lfingers
    rclavicle rhumerus
    rhumerus rradius
    rradius rwrist
    rwrist rhand rthumb
    rhand rfingers
  end

#!OML:ASF H:\SkateBoarding\Project 1\Capture day 1\Session 1\Skater.ASF
:FULLY-SPECIFIED
:DEGREES
214
root 4.21506 18.9394 44.3401 -31.8541 79.5466 -34.5283
lowerback 12.8188 -2.94071 -5.98644
upperback 1.60649 -4.75938 -2.11236
thorax -5.17243 -2.19874 1.9347
lowerneck -14.081 -8.75739 -1.96686
upperneck 41.1107 -13.4384 4.17738
head 18.2424 -4.77523 -0.176707
rclavicle -4.33351e-014 -1.43125e-014
rhumerus -54.4355 0.0378253 -90.4805
rradius 45.8982
rwrist -10.9433
rhand -16.1039 -5.87974
rfingers 7.12502
rthumb 10.0999 -35.6173
lclavicle -4.33351e-014 -1.43125e-014
lhumerus -29.6951 -17.2371 89.425
lradius 54.7526
lwrist 30.782
lhand -29.4703 19.8295
lfingers 7.12502
lthumb -2.80588 49.7908
rfemur -21.8836 13.0606 18.7608
rtibia 53.3873
rfoot -31.3124 12.8444
rtoes 1.21421
lfemur -18.4234 -8.37839 -9.61477
ltibia 60.289
lfoot -46.2804 5.10624
ltoes -25.2589
215
root 4.2145 18.9285 44.6941 -31.5386 79.4489 -34.1893
lowerback 12.8751 -2.93636 -6.02543
upperback 1.64563 -4.7579 -2.06606
thorax -5.15487 -2.19786 2.00657
lowerneck -14.1212 -8.74201 -2.03334
upperneck 41.1054 -13.4177 4.22827
head 18.2628 -4.76952 -0.14094
rclavicle -4.17448e-014 -2.22639e-014
rhumerus -54.0599 -0.0872504 -90.1023
rradius 45.8254
rwrist -11.0354
rhand -16.7782 -5.5599
rfingers 7.12502
rthumb 9.44935 -35.3281
lclavicle -4.17448e-014 -2.22639e-014
lhumerus -29.8678 -16.8759 89.2278
lradius 54.122
lwrist 30.6149
lhand -29.3759 19.9592
lfingers 7.12502
lthumb -2.71472 49.9216
rfemur -22.0402 13.0918 18.6408
rtibia 53.4969
rfoot -31.0764 12.9886
rtoes 1.3856
lfemur -18.5776 -8.02311 -9.65413
ltibia 60.5381
lfoot -46.203 4.92267
ltoes -25.1517
216
root 4.21542 18.9203 45.0472 -31.1267 79.416 -33.7462
lowerback 12.9604 -2.88912 -6.01895
upperback 1.66588 -4.701 -2.11544
thorax -5.18954 -2.1686 1.94699
lowerneck -14.1016 -8.79131 -1.95283
upperneck 41.1123 -13.5408 4.27722
head 18.2673 -4.79901 -0.15524
rclavicle -1.55052e-014 3.18055e-015
rhumerus -53.7772 -0.380377 -89.8104
rradius 45.8199
rwrist -11.2001
rhand -17.572 -5.36896
rfingers 7.12502
rthumb 8.68339 -35.1704
lclavicle -1.55052e-014 3.18055e-015
lhumerus -30.0485 -16.7872 89.0084
lradius 53.4915
lwrist 30.573
lhand -29.3193 19.9815
lfingers 7.12502
lthumb -2.66004 49.9447
rfemur -22.1955 12.9986 18.4486
rtibia 53.5982
rfoot -30.8292 12.9336
rtoes 1.32422
lfemur -18.7346 -7.68855 -9.76373
ltibia 60.7637
lfoot -46.0231 5.01331
ltoes -25.338
217
root 4.21555 18.9112 45.4021 -30.9917 79.3138 -33.5723
lowerback 13.0483 -2.87661 -6.09373
upperback 1.68858 -4.69588 -2.03219
thorax -5.20111 -2.16394 2.07935
lowerneck -14.1252 -8.77927 -2.05793
upperneck 41.1387 -13.5054 4.31126
head 18.3032 -4.79391 -0.116955
rclavicle 3.97569e-015 -3.33958e-014
rhumerus -53.4552 -0.415356 -89.4468
rradius 45.8004
rwrist -11.4164
rhand -18.2075 -5.21347
rfingers 7.12502
rthumb 8.07009 -35.0394
lclavicle 3.97569e-015 -3.33958e-014
lhumerus -30.2557 -16.4474 88.8868
lradius 52.9472
lwrist 30.6956
lhand -29.271 20.0475
lfingers 7.12502
lthumb -2.61346 50.0112
rfemur -22.3227 12.9464 18.3593
rtibia 53.6536
rfoot -30.562 12.8802
rtoes 1.23625
lfemur -18.8462 -7.41643 -9.79033
ltibia 60.9723
lfoot -45.9404 4.85944
ltoes -25.2132
218
root 4.21683 18.903 45.7556 -30.6569 79.2607 -33.1834
lowerback 13.1323 -2.85234 -6.09367
upperback 1.71635 -4.66892 -2.06433
thorax -5.2229 -2.14978 2.0456
lowerneck -14.1017 -8.80509 -1.98467
upperneck 41.1396 -13.5797 4.33567
head 18.2976 -4.8096 -0.131412
rclavicle 4.09496e-014 3.18055e-015
rhumerus -53.143 -0.703741 -89.1364
rradius 45.7561
rwrist -11.5152
rhand -18.8844 -5.05604
rfingers 7.12502
rthumb 7.41669 -34.906
lclavicle 4.09496e-014 3.18055e-015
lhumerus -30.4216 -16.1701 88.6538
lradius 52.3538
lwrist 30.568
lhand -28.7095 19.9955
lfingers 7.12502
lthumb -2.07117 49.9652
rfemur -22.3937 12.9096 18.2028
rtibia 53.603
rfoot -30.3102 12.5799
rtoes 1.31111
lfemur -18.9611 -7.10796 -9.88488
ltibia 61.1979
lfoot -45.791 4.82529
ltoes -25.2836
219
root 4.21662 18.898 46.1107 -30.5602 79.2323 -33.0703
lowerback 13.2175 -2.84823 -6.11763
upperback 1.72307 -4.67162 -2.04224
thorax -5.25879 -2.14903 2.08747
lowerneck -14.0766 -8.81724 -2.00916
upperneck 41.1442 -13.6136 4.39122
head 18.3061 -4.81933 -0.107492
rclavicle -1.10127e-013 -1.11319e-014
rhumerus -52.8711 -0.816236 -88.8379
rradius 45.7788
rwrist -11.7502
rhand -19.3621 -4.90969
rfingers 7.12502
rthumb 6.95558 -34.7754
lclavicle -1.10127e-013 -1.11319e-014
lhumerus -30.6043 -15.9669 88.492
lradius 51.8154
lwrist 30.6024
lhand -28.5676 20.1315
lfingers 7.12502
lthumb -1.93412 50.1025
rfemur -22.5226 12.8933 18.0521
rtibia 53.4062
rfoot -29.4129 11.9352
rtoes 1.45015
lfemur -19.1713 -6.85255 -9.95211
ltibia 61.4832
lfoot -45.7977 5.03061
ltoes -25.4449
220
root 4.22197 18.8953 46.4649 -30.0633 79.1939 -32.4945
lowerback 13.2643 -2.82148 -6.17464
upperback 1.7745 -4.64435 -2.07241
thorax -5.23007 -2.13552 2.08401
lowerneck -14.0826 -8.84387 -1.99194
upperneck 41.1561 -13.6869 4.44768
head 18.3255 -4.83693 -0.0996545
rclavicle 9.54166e-015 -4.77083e-015
rhumerus -52.597 -0.913391 -88.5927
rradius 45.8355
rwrist -11.9893
rhand -19.9561 -4.81586
rfingers 7.12502
rthumb 6.38217 -34.6997
lclavicle 9.54166e-015 -4.77083e-015
lhumerus -30.8151 -15.9497 88.3214
lradius 51.3749
lwrist 30.7846
lhand -28.5683 20.0344
lfingers 7.12502
lthumb -1.93483 50.0054
rfemur -22.4797 12.7667 17.8557
rtibia 53.1085
rfoot -28.2199 12.3444
rtoes 3.11813
lfemur -19.2953 -6.56509 -10.1445
ltibia 61.7973
lfoot -45.8662 5.59954
ltoes -25.8782
221
root 4.22609 18.8854 46.8196 -29.7867 79.1176 -32.1548
lowerback 13.3088 -2.78786 -6.22603
upperback 1.80085 -4.60732 -2.0536
thorax -5.2237 -2.1165 2.12798
lowerneck -14.0189 -8.86955 -2.04536
upperneck 41.1387 -13.7256 4.49445
head 18.3125 -4.85714 -0.073927
rclavicle -5.56597e-014 -4.77083e-015
rhumerus -52.3558 -1.05781 -88.2967
rradius 45.8917
rwrist -12.1158
rhand -20.4433 -4.82316
rfingers 7.12502
rthumb 5.91183 -34.7207
lclavicle -5.56597e-014 -4.77083e-015
lhumerus -30.9849 -15.6362 88.1634
lradius 50.8736
lwrist 30.7272
lhand -28.0739 19.6978
lfingers 7.12502
lthumb -1.45733 49.6725
rfemur -22.3105 12.535 17.7889
rtibia 52.7972
rfoot -27.7457 12.9389
rtoes 3.6447
lfemur -19.4288 -6.3173 -10.244
ltibia 62.1115
lfoot -45.8541 6.05002
ltoes -26.151
222
root 4.23091 18.8767 47.1748 -29.6965 79.0734 -32.0015
lowerback 13.3745 -2.77801 -6.24471
upperback 1.81862 -4.59987 -2.04185
thorax -5.23915 -2.11178 2.15281
lowerneck -14.0193 -8.87817 -2.02694
upperneck 41.1865 -13.7352 4.46462
head 18.336 -4.85939 -0.0925983
rclavicle 7.4743e-014 7.15625e-014
rhumerus -52.2048 -1.04628 -88.0842
rradius 46.0702
rwrist -12.3061
rhand -20.8638 -4.84731
rfingers 7.12502
rthumb 5.50585 -34.7558
lclavicle 7.4743e-014 7.15625e-014
lhumerus -31.1616 -15.407 88.0378
lradius 50.4131
lwrist 30.636
lhand -27.9258 19.6365
lfingers 7.12502
lthumb -1.31428 49.6122
rfemur -22.1477 12.2653 17.7415
rtibia 52.5209
rfoot -27.9368 12.7186
rtoes 2.0891
lfemur -19.5102 -6.18967 -10.2809
ltibia 62.3189
lfoot -45.7291 6.05444
ltoes -26.2151
223
root 4.23834 18.8726 47.5298 -29.9479 78.967 -32.1763
lowerback 13.4095 -2.71309 -6.12079
upperback 1.8391 -4.49845 -2.05793
thorax -5.25561 -2.06419 2.05233
lowerneck -13.9011 -8.95539 -2.02838
upperneck 41.1896 -13.8701 4.51834
head 18.3221 -4.90855 -0.0882087
rclavicle -1.23246e-014 6.36111e-015
rhumerus -52.0763 -1.3585 -87.8257
rradius 46.1965
rwrist -12.456
rhand -21.1789 -4.84735
rfingers 7.12502
rthumb 5.20158 -34.7635
lclavicle -1.23246e-014 6.36111e-015
lhumerus -31.4175 -15.57 87.9429
lradius 50.0706
lwrist 30.6583
lhand -27.8159 19.4942
lfingers 7.12502
lthumb -1.20809 49.4705
rfemur -21.9957 11.9127 17.8024
rtibia 52.2879
rfoot -27.6872 12.8098
rtoes 2.18117
lfemur -19.4971 -6.05704 -10.2217
ltibia 62.4542
lfoot -45.7419 6.03951
ltoes -26.1307
224
root 4.24628 18.869 47.8847 -29.7951 78.9075 -31.9724
lowerback 13.4261 -2.71752 -6.11727
upperback 1.86857 -4.50151 -2.03072
thorax -5.23119 -2.06681 2.07939
lowerneck -13.9591 -8.94868 -2.10296
upperneck 41.2288 -13.8374 4.50738
head 18.3658 -4.90456 -0.0780589
rclavicle 3.69739e-014 -6.36111e-015
rhumerus -51.893 -1.3086 -87.6008
rradius 46.3711
rwrist -12.6288
rhand -21.386 -4.83279
rfingers 7.12502
rthumb 5.00163 -34.7538
lclavicle 3.69739e-014 -6.36111e-015
lhumerus -31.5666 -15.3594 87.8509
lradius 49.7206
lwrist 30.5052
lhand -27.5839 19.5197
lfingers 7.12502
lthumb -0.984074 49.4972
rfemur -21.8367 11.9065 17.7718
rtibia 52.0642
rfoot -27.588 13.1645
rtoes 2.85728
lfemur -19.4838 -5.96238 -10.2498
ltibia 62.4985
lfoot -45.7233 6.20829
ltoes -26.2994
225
root 4.2549 18.8644 48.2414 -29.4416 78.8636 -31.6084
lowerback 13.3673 -2.68923 -6.14446
upperback 1.8659 -4.46492 -2.05811
thorax -5.20451 -2.04942 2.05637
lowerneck -13.9893 -8.947 -1.95093
upperneck 41.3192 -13.8482 4.41069
head 18.3997 -4.89191 -0.150742
rclavicle 3.22031e-014 1.43125e-014
rhumerus -51.7919 -1.42793 -87.422
rradius 46.5343
rwrist -12.7505
rhand -21.6358 -4.87102
rfingers 7.12502
rthumb 4.76043 -34.7975
lclavicle 3.22031e-014 1.43125e-014
lhumerus -31.7504 -15.3684 87.701
lradius 49.3917
lwrist 30.4233
lhand -27.388 19.3636
lfingers 7.12502
lthumb -0.794794 49.3419
rfemur -21.7953 11.7506 17.6734
rtibia 51.8914
rfoot -27.2096 13.485
rtoes 3.11284
lfemur -19.4454 -5.86713 -10.2982
ltibia 62.477
lfoot -45.8623 6.01456
ltoes -26.0741
226
root 4.26574 18.8618 48.5975 -28.9049 78.7797 -31.0131
lowerback 13.3483 -2.63239 -6.23157
upperback 1.87182 -4.39874 -2.02779
thorax -5.18355 -2.01601 2.12436
lowerneck -13.894 -8.97548 -2.16654
upperneck 41.317 -13.8538 4.49918
head 18.4087 -4.91739 -0.070966
rclavicle -4.77083e-015 1.59028e-014
rhumerus -51.6967 -1.44497 -87.1897
rradius 46.7125
rwrist -12.9665
rhand -21.8867 -4.83936
rfingers 7.12502
rthumb 4.5182 -34.7712
lclavicle -4.77083e-015 1.59028e-014
lhumerus -31.8914 -15.1794 87.6559
lradius 49.0933
lwrist 30.2934
lhand -27.0948 19.1507
lfingers 7.12502
lthumb -0.511638 49.1298
rfemur -21.7525 11.6449 17.569
rtibia 51.766
rfoot -26.8704 13.6218
rtoes 3.08084
lfemur -19.3014 -5.8071 -10.3845
ltibia 62.3993
lfoot -45.9656 5.99848
ltoes -26.0083
227
root 4.27882 18.8562 48.9555 -28.5996 78.4897 -30.6852
lowerback 13.2555 -2.54115 -6.11042
upperback 1.85648 -4.25717 -2.05139
thorax -5.17043 -1.95001 2.00483
lowerneck -13.7869 -9.02068 -2.05122
upperneck 41.3516 -13.9468 4.47331
head 18.3907 -4.94118 -0.114081
rclavicle 2.62396e-014 3.97569e-014
rhumerus -51.634 -1.63445 -87.0153
rradius 46.837
rwrist -13.0647
rhand -22.0471 -4.86305
rfingers 7.12502
rthumb 4.36328 -34.7981
lclavicle 2.62396e-014 3.97569e-014
lhumerus -32.1044 -15.2643 87.5393
lradius 48.8916
lwrist 30.2649
lhand -26.9266 19.1139
lfingers 7.12502
lthumb -0.349165 49.0933
rfemur -21.7702 11.6668 17.6542
rtibia 51.7117
rfoot -26.6672 13.8118
rtoes 3.19098
lfemur -19.1682 -5.50535 -10.2599
ltibia 62.3126
lfoot -46.0217 6.03686
ltoes -25.9588
228
root 4.28838 18.8502 49.3124 -28.4956 78.2808 -30.5572
lowerback 13.2221 -2.48186 -6.03698
upperback 1.84152 -4.1661 -2.00845
thorax -5.17667 -1.90688 1.9931
lowerneck -13.9117 -9.01419 -2.02013
upperneck 41.5365 -13.9098 4.35199
head 18.5144 -4.92188 -0.174552
rclavicle -2.26615e-014 2.54444e-014
rhumerus -51.5774 -1.57051 -86.8449
rradius 47.0079
rwrist -13.2592
rhand -22.1119 -4.84752
rfingers 7.12502
rthumb 4.3007 -34.7838
lclavicle -2.26615e-014 2.54444e-014
lhumerus -32.1719 -14.9652 87.4432
lradius 48.5668
lwrist 30.0851
lhand -26.6379 18.9606
lfingers 7.12502
lthumb -0.0703633 48.9403
rfemur -21.8315 11.4753 17.7245
rtibia 51.7179
rfoot -26.3333 13.964
rtoes 3.0127
lfemur -19.043 -5.33534 -10.1491
ltibia 62.2011
lfoot -46.0429 6.36647
ltoes -26.7481
